<?xml version="1.0" encoding="UTF-8" standalone="no"?>
<!-- Copyright (c) 2012 Vašek Potoček -->

<svg
   xmlns="http://www.w3.org/2000/svg"
   version="1.2"
   width="512"
   height="512">
  <rect
     width="106.32144"
     height="106.32144"
     x="74.839287"
     y="10.839297"
     fill="#3d3d3d" />
  <rect
     width="106.32144"
     height="106.32144"
     x="202.83929"
     y="10.839275"
     fill="#3d3d3d" />
  <rect
     width="106.32144"
     height="106.32144"
     x="330.83929"
     y="10.839275"
     fill="#3d3d3d" />
  <rect
     width="106.32144"
     height="106.32144"
     x="74.839279"
     y="138.83929"
     fill="#3d3d3d" />
  <rect
     width="106.32144"
     height="106.32144"
     x="202.83928"
     y="138.83928"
     fill="#3d3d3d" />
  <rect
     width="106.32144"
     height="106.32144"
     x="330.83929"
     y="138.83928"
     fill="#3d3d3d" />
  <rect
     width="106.32144"
     height="106.32144"
     x="74.839279"
     y="266.83929"
     fill="#3d3d3d" />
  <rect
     width="106.32144"
     height="106.32144"
     x="202.83928"
     y="266.83926"
     fill="#3d3d3d" />
  <rect
     width="106.32144"
     height="106.32144"
     x="330.83929"
     y="266.83926"
     fill="#3d3d3d" />
  <rect
     width="106.32144"
     height="106.32144"
     x="202.83928"
     y="394.83926"
     fill="#3d3d3d" />
  <path
     d="m 139.31593,96.453631 h -8.70118 v -55.986328 l -13.93066,0.131836 v -6.679688 l 22.63184,-2.373047 v 64.907227"
     fill="#ffffff" />
  <path
     d="m 276.23682,96.45361 h -39.72656 v -5.93262 l 20.08301,-23.950193 c 3.57419,-4.335903 5.99118,-7.778282 7.25098,-10.327148 c 1.28902,-2.578082 1.93355,-5.170853 1.93359,-7.77832 c -4e-5,-2.958934 -0.86429,-5.375923 -2.59277,-7.250977 c -1.72855,-1.90424 -4.11624,-2.856387 -7.16309,-2.856445 c -3.77932,5.8e-5 -6.66506,1.157283 -8.65723,3.47168 c -1.9629,2.314505 -2.94435,5.200244 -2.94433,8.657226 h -8.34961 l -0.0879,-0.263672 c -0.14649,-5.214792 1.59667,-9.623967 5.22949,-13.227539 c 3.6328,-3.632749 8.56932,-5.449154 14.80957,-5.449219 c 5.71286,6.5e-5 10.20993,1.582095 13.49121,4.746094 c 3.28121,3.16412 4.92183,7.25103 4.92188,12.260742 c -5e-5,3.369186 -0.93755,6.665081 -2.8125,9.887696 c -1.84575,3.222691 -4.67289,7.265655 -8.48145,12.128906 l -16.12793,18.896489 l 0.0879,0.21972 h 29.13574 v 6.76758"
     fill="#ffffff" />
  <path
     d="m 384.0879,59.605465 c 3.86716,3.7e-5 6.59177,-0.952111 8.17383,-2.856445 c 1.61129,-1.933553 2.41696,-4.628862 2.41699,-8.085938 c -3e-5,-3.222605 -0.87894,-5.815376 -2.63672,-7.77832 c -1.72854,-1.99213 -4.30667,-2.988223 -7.73437,-2.988281 c -3.33987,5.8e-5 -6.10842,1.040096 -8.30567,3.120117 c -2.16798,2.050834 -3.25196,4.628957 -3.25195,7.734375 h -8.26172 l -0.13183,-0.263672 c -0.14649,-4.804635 1.66991,-8.906193 5.44921,-12.304687 c 3.77929,-3.398375 8.61327,-5.097592 14.50196,-5.097657 c 5.94723,6.5e-5 10.60543,1.508853 13.97461,4.526368 c 3.36909,2.988338 5.05366,7.397514 5.05371,13.227539 c -5e-5,2.988325 -0.79106,5.712932 -2.37305,8.173828 c -1.55277,2.460974 -3.73539,4.379917 -6.54785,5.756836 c 3.22262,1.289094 5.6689,3.251983 7.33887,5.888672 c 1.69917,2.607446 2.54878,5.771506 2.54882,9.492187 c -4e-5,5.859387 -1.86039,10.458987 -5.58105,13.798827 c -3.69144,3.31055 -8.49613,4.96582 -14.41406,4.96582 c -5.44924,0 -10.25392,-1.59668 -14.41407,-4.79004 c -4.13086,-3.22265 -6.12305,-7.47069 -5.97656,-12.744138 l 0.0879,-0.263672 h 8.26172 c -10e-6,3.10548 1.11327,5.72755 3.33985,7.86621 c 2.25584,2.10938 5.15622,3.16407 8.70117,3.16406 c 3.51559,1e-5 6.28415,-1.08397 8.30566,-3.25195 c 2.02145,-2.19725 3.03219,-5.0537 3.03223,-8.569336 c -4e-5,-4.01365 -0.93754,-7.016577 -2.8125,-9.008789 c -1.84574,-1.992159 -4.76077,-2.988251 -8.74512,-2.988281 h -7.11914 v -6.723633 h 7.11914"
     fill="#ffffff" />
  <path
     d="m 141.62305,202.45901 h 8.83301 v 6.76758 h -8.83301 v 14.76562 h -8.61328 v -14.76562 h -27.46582 v -4.87794 l 26.93847,-44.34082 h 9.14063 v 42.45118 m -26.80664,0 h 18.19336 v -30.01465 l -0.26367,-0.0439 l -0.83497,2.19726 l -17.09472,27.86133"
     fill="#ffffff" />
  <path
     d="m 237.4331,195.09814 l 3.69141,-35.55175 h 32.03613 v 7.69042 h -24.74121 l -2.06543,18.41309 c 1.37694,-1.02535 2.90037,-1.86031 4.57032,-2.50488 c 1.66989,-0.67379 3.57419,-1.02535 5.71289,-1.05469 c 5.91793,-0.0585 10.54683,1.8018 13.88671,5.58106 c 3.3691,3.75003 5.05367,8.90627 5.05372,15.46875 c -5e-5,6.41602 -1.72856,11.57227 -5.18555,15.46875 c -3.42777,3.89648 -8.43753,5.84472 -15.0293,5.84472 c -5.41994,0 -9.93165,-1.47949 -13.53515,-4.43847 c -3.60353,-2.95898 -5.33204,-7.30956 -5.18555,-13.05176 l 0.0879,-0.26367 h 7.82227 c -2e-5,3.48634 0.99607,6.1963 2.98828,8.12988 c 2.02146,1.9043 4.62888,2.85645 7.82226,2.85644 c 3.66208,1e-5 6.50388,-1.28905 8.52539,-3.86718 c 2.02145,-2.57812 3.03219,-6.10839 3.03223,-10.59082 c -4e-5,-4.07225 -1.02543,-7.36814 -3.07617,-9.8877 c -2.02152,-2.5195 -4.84866,-3.77926 -8.48145,-3.7793 c -3.39846,4e-5 -5.85939,0.51273 -7.38281,1.53809 c -1.52345,1.02542 -2.65138,2.60745 -3.38379,4.74609 l -7.16309,-0.74707"
     fill="#ffffff" />
  <path
     d="m 385.77979,159.08495 c 2.5195,7e-5 5.00973,0.24909 7.4707,0.74707 c 2.4609,0.49811 4.49703,1.128 6.1084,1.88965 l -1.8457,6.63574 c -1.66996,-0.73236 -3.42777,-1.3183 -5.27344,-1.75781 c -1.84573,-0.46869 -3.99905,-0.70307 -6.45996,-0.70312 c -4.0137,5e-5 -7.28029,1.71392 -9.7998,5.1416 c -2.49025,3.42778 -3.73537,7.76372 -3.73536,13.00781 v 4.96582 c 1.7871,-1.78707 3.89647,-3.19332 6.32813,-4.21875 c 2.46091,-1.02535 5.09763,-1.53804 7.91016,-1.53809 c 5.50777,5e-5 9.85836,1.84575 13.05175,5.53711 c 3.22261,3.69144 4.83394,8.54007 4.83399,14.5459 c -5e-5,6.56252 -1.80181,11.80665 -5.40528,15.73243 c -3.57425,3.89648 -8.40823,5.84472 -14.50195,5.84472 c -5.91799,0 -10.86916,-2.24121 -14.85351,-6.72363 c -3.98439,-4.51171 -5.97657,-10.66405 -5.97657,-18.45703 v -14.72168 c 0,-7.49996 2.12402,-13.69624 6.37207,-18.58887 c 4.27733,-4.89252 9.53611,-7.3388 15.77637,-7.33887 m -2.06543,30.62989 c -2.72463,3e-5 -5.06838,0.58597 -7.03125,1.75781 c -1.93361,1.14261 -3.4131,2.69534 -4.43848,4.6582 v 4.43848 c -10e-6,5.41994 1.17186,9.71193 3.51563,12.87598 c 2.37303,3.13477 5.27341,4.70215 8.70117,4.70214 c 3.60349,1e-5 6.37204,-1.36229 8.30566,-4.08691 c 1.96286,-2.75389 2.9443,-6.32811 2.94434,-10.72266 c -4e-5,-4.16013 -1.05472,-7.47067 -3.16406,-9.93164 c -2.08011,-2.4609 -5.02445,-3.69137 -8.83301,-3.6914"
     fill="#ffffff" />
  <path
     d="m 149.22559,294.81936 c -8.08597,9.60942 -13.54984,18.09086 -16.3916,25.44433 c -2.84182,7.35354 -4.26272,15.60061 -4.26269,24.74122 v 6.9873 h -8.65723 v -6.9873 c -2e-5,-9.66796 1.77244,-18.36912 5.31738,-26.10352 c 3.57419,-7.76363 8.73044,-15.79097 15.46875,-24.08203 h -33.92578 v -6.81153 h 42.45117 v 6.81153"
     fill="#ffffff" />
  <path
     d="m 275.07227,304.35546 c -4e-5,3.33989 -0.93754,6.28422 -2.8125,8.83301 c -1.87504,2.51957 -4.36527,4.40921 -7.4707,5.66894 c 3.63277,1.2598 6.54781,3.26664 8.74511,6.02051 c 2.19723,2.75393 3.29586,5.93264 3.2959,9.53613 c -4e-5,5.88869 -1.91899,10.44435 -5.75683,13.667 c -3.80863,3.22265 -8.67191,4.83398 -14.58985,4.83398 c -6.26955,0 -11.3965,-1.61133 -15.38086,-4.83398 c -3.95508,-3.22265 -5.93262,-7.77831 -5.93261,-13.667 c -1e-5,-3.60349 1.11327,-6.7822 3.33984,-9.53613 c 2.25585,-2.75387 5.28807,-4.77536 9.09668,-6.06445 c -3.28126,-1.23044 -5.87403,-3.10543 -7.77832,-5.625 c -1.9043,-2.54879 -2.85645,-5.49312 -2.85645,-8.83301 c 0,-5.59565 1.78711,-9.87299 5.36133,-12.83203 c 3.6035,-2.95892 8.291,-4.43841 14.0625,-4.43848 c 5.44919,7e-5 9.91696,1.49421 13.40332,4.48242 c 3.51559,2.95905 5.2734,7.22174 5.27344,12.78809 m -6.85547,29.88281 c -4e-5,-3.4863 -1.14261,-6.35739 -3.42773,-8.61328 c -2.25589,-2.25583 -5.05374,-3.38376 -8.39356,-3.38379 c -3.63283,3e-5 -6.63576,1.12796 -9.00879,3.38379 c -2.37306,2.25589 -3.55958,5.12698 -3.55957,8.61328 c -10e-6,3.60353 1.17186,6.48927 3.51563,8.65723 c 2.37303,2.16798 5.4199,3.25196 9.14062,3.25195 c 3.33982,1e-5 6.12302,-1.08397 8.34961,-3.25195 c 2.25583,-2.19725 3.38375,-5.08299 3.38379,-8.65723 m -1.80176,-29.75097 c -3e-5,-3.07612 -0.96683,-5.6103 -2.90039,-7.60254 c -1.90432,-1.99213 -4.27737,-2.98823 -7.11914,-2.98828 c -3.13479,5e-5 -5.71291,0.96685 -7.73437,2.90039 c -2.0215,1.90435 -3.03224,4.46782 -3.03223,7.69043 c -1e-5,3.25199 1.02538,5.88871 3.07617,7.91015 c 2.05076,2.02152 4.64354,3.03227 7.77832,3.03223 c 2.84177,4e-5 5.20017,-1.01071 7.0752,-3.03223 c 1.90426,-2.02144 2.85641,-4.65816 2.85644,-7.91015"
     fill="#ffffff" />
  <path
     d="m 381.64893,346.14745 c 4.16013,1e-5 7.51462,-1.43554 10.06347,-4.30664 c 2.57809,-2.87108 3.86715,-6.94334 3.86719,-12.21679 v -5.44922 c -1.40628,2.0801 -3.16409,3.66213 -5.27344,4.74609 c -2.0801,1.05471 -4.36526,1.58205 -6.85547,1.58203 c -6.15236,2e-5 -10.98634,-1.88962 -14.50195,-5.66894 c -3.48633,-3.80857 -5.2295,-9.082 -5.22949,-15.82032 c -1e-5,-6.44526 1.86034,-11.70404 5.58105,-15.77636 c 3.72069,-4.1015 8.3203,-6.15228 13.79883,-6.15235 c 6.38669,7e-5 11.51364,2.0069 15.38086,6.02051 c 3.86715,4.01373 5.80074,9.68267 5.80078,17.00684 v 19.42382 c -4e-5,7.35354 -2.10942,13.09572 -6.32812,17.22657 c -4.21879,4.10156 -9.65335,6.15234 -16.30371,6.15234 c -2.25588,0 -4.57033,-0.23437 -6.94336,-0.70312 c -2.34377,-0.46875 -4.54103,-1.15723 -6.5918,-2.06543 l 1.31836,-6.5918 c 1.93358,0.93751 3.82323,1.61133 5.66894,2.02148 c 1.87499,0.38087 4.0576,0.5713 6.54786,0.57129 m 1.80175,-22.41211 c 3.01756,3e-5 5.55173,-0.68844 7.60254,-2.06543 c 2.08005,-1.37692 3.58884,-3.13473 4.52637,-5.27343 v -7.5586 c -4e-5,-4.77534 -1.06937,-8.45209 -3.20801,-11.03027 c -2.1387,-2.60737 -5.14163,-3.91108 -9.00879,-3.91113 c -3.13478,5e-5 -5.75685,1.4063 -7.86621,4.21875 c -2.08009,2.78325 -3.12013,6.41606 -3.12011,10.89843 c -2e-5,4.39457 0.96678,7.95414 2.90039,10.67871 c 1.93357,2.69535 4.65818,4.043 8.17382,4.04297"
     fill="#ffffff" />
  <path
     d="m 276.36866,457.40429 c -5e-5,7.23634 -1.84575,12.96388 -5.53711,17.18262 c -3.66215,4.21875 -8.59866,6.32812 -14.80957,6.32812 c -6.18166,0 -11.13283,-2.10937 -14.85352,-6.32812 c -3.69141,-4.21874 -5.53711,-9.94628 -5.5371,-17.18262 v -18.80859 c -1e-5,-7.17769 1.83104,-12.89058 5.49316,-17.13868 c 3.69139,-4.24798 8.62791,-6.372 14.80957,-6.37207 c 6.21091,7e-5 11.16207,2.12409 14.85352,6.37207 c 3.72065,4.2481 5.581,9.96099 5.58105,17.13868 v 18.80859 m -8.65723,-20.61035 c -3e-5,-4.59956 -1.02542,-8.23237 -3.07617,-10.89844 c -2.05081,-2.66596 -4.9512,-3.99896 -8.70117,-3.99902 c -3.72072,6e-5 -6.59182,1.33306 -8.61328,3.99902 c -2.0215,2.66607 -3.03224,6.29888 -3.03223,10.89844 v 22.36816 c -1e-5,4.59963 1.02538,8.24708 3.07617,10.94238 c 2.08006,2.69532 4.9658,4.04298 8.65723,4.04297 c 3.74997,1e-5 6.63571,-1.333 8.65723,-3.99902 c 2.02145,-2.6953 3.03219,-6.35741 3.03222,-10.98633 v -22.36816"
     fill="#ffffff" />
</svg>
