<?xml version="1.0" encoding="UTF-8" standalone="no"?>
<!-- Copyright (c) 2012 Vašek Potoček -->

<svg
   xmlns="http://www.w3.org/2000/svg"
   version="1.1"
   width="512"
   height="512">
  <path
     d="m 142.26301,133.65544 h -35.97656 v 37.73438 h -11.542973 v -85.312504 h 53.496093 v 9.082032 h -41.95312 v 29.414062 h 35.97656 v 9.08203"
     fill="#ffffff" />
  <path
     d="m 137.6048,377.21378 h -32.10937 l -7.617188,21.97265 h -11.777343 l 30.761721,-85.3125 h 9.90234 l 30.11719,85.3125 h -11.77735 l -7.5,-21.97265 m -28.76953,-9.66797 h 25.48828 l -12.42187,-36.6211 h -0.35156 l -12.71485,36.6211"
     fill="#ffffff" />
  <path
     d="m 194.28571,143.42858 c 21.94109,-7.3137 3.61477,-1.79557 27.14286,-7.14286 c 5.74368,-1.30538 11.48831,-2.63647 17.14286,-4.28572 c 5.78245,-1.68654 11.29931,-4.2534 17.14286,-5.71428 c 5.62014,-1.40504 11.47151,-1.67562 17.14285,-2.85714 c 12.91537,-2.69071 19.83738,-5.84089 32.85715,-7.14286 c 4.26444,-0.42645 8.57142,0 12.85714,0 c 5.71428,0 11.42857,0 17.14286,0 m -47.83715,317.09479 c 1.19728,-42.36404 2.39455,-84.72807 3.59183,-127.0921 c 0.17488,-6.18801 0.34977,-12.37602 0.52465,-18.56402 c 0.0269,-0.952 0.0538,-1.904 0.0807,-2.856 c 0.0135,-0.476 -0.30574,-1.10094 0.0404,-1.42801 c 0.3461,-0.32707 1.44145,-0.43564 1.428,0.0404 c -0.0134,0.476 -0.952,-0.0269 -1.428,-0.0404 m -40.51775,148.59767 c 1.20578,-24.25576 2.41156,-48.51153 3.61734,-72.76729 c 0.37828,-7.60965 1.01904,-15.21078 1.13485,-22.82895 c 0.0944,-6.20805 -0.27465,-12.41496 -0.50475,-18.61945 c -0.24153,-6.51281 -0.54184,-16.0731 -1.71877,-22.97081 c -0.25327,-1.4844 -0.92178,-2.87414 -1.21402,-4.35136 c -0.0924,-0.46714 0.0473,-0.95121 0.0709,-1.42681 c 0.0946,-1.90241 0.18914,-3.80482 0.28371,-5.70724 c 0.28371,-5.70724 0.56742,-11.41448 0.85114,-17.12171 m -35.26375,165.80041 c -0.88789,-38.56121 -1.77579,-77.12241 -2.66368,-115.68362 c -0.0877,-3.80852 -0.17539,-7.61703 -0.26308,-11.42554 c -0.12406,-5.38792 -0.90768,-9.31705 1.09934,-14.31482 c 0.63982,-1.59326 2.02545,-2.7974 2.75773,-4.35034 c 0.85689,-1.81722 -2.11694,-2.80917 1.36242,-2.88928 m 105.99651,-54.23838 c -0.86802,-13.02026 -1.98913,-4.1226 -2.85715,-17.14286 c -0.28508,-4.27622 0.21402,-8.57678 0,-12.85714 c -0.26265,-5.25314 -1.2001,-10.45956 -1.42857,-15.71429 c -0.24821,-5.70889 0,-11.42857 0,-17.14286 c 0,-17.61904 0,-35.23809 0,-52.85714 c 0,-15.23809 0,-30.47619 0,-45.71429 c 0,-2.38095 0,-4.7619 0,-7.14285 c 0,-1.42857 -0.34648,-2.8998 0,-4.28572 c 0.16334,-0.65332 1.12741,-0.82623 1.42857,-1.42857 c 0.21296,-0.42592 -0.47619,-1.42857 0,-1.42857 c 0.47619,0 0,0.95238 0,1.42857 m -30.18359,144.70063 c -1.35701,-6.21359 -1.62649,-12.61455 -2.92258,-18.83411 c -1.2288,-5.89671 -3.4757,-11.56947 -4.45135,-17.51332 c -0.33768,-2.05719 -2.89026,-37.62636 -2.89163,-38.88503 c -0.007,-6.19048 1.21006,-12.33332 1.35176,-18.52217 c 0.0771,-3.3663 -0.56964,-6.712689 -0.69691,-10.077458 c -0.10758,-2.844225 0.51025,-6.991515 0.72787,-9.973475 c 0.41593,-5.699133 0.83185,-11.398265 1.24778,-17.097388 c 0.27728,-3.799416 0.55457,-7.598841 0.83185,-11.398256 c 0.27729,-3.799425 0.24,-7.634993 0.83185,-11.398256 c 0.30504,-1.939552 1.31655,-3.703025 1.84071,-5.595151 c 0.25426,-0.917818 0.13864,-1.899708 0.20796,-2.849562 M 251.42857,204.85714 C 250.95238,202 250.14465,199.17866 250,196.28572 c -0.33291,-6.65835 0,-13.33334 0,-20 c 0,-18.57143 0,-37.14286 0,-55.71429 c 0,-11.90476 0,-23.80952 0,-35.71429 c 0,-4.28571 0,-8.57143 0,-12.85714 c 0,-3.80952 -0.23763,-7.62647 0,-11.42857 c 1.27715,-20.4343 1.15049,-2.47817 4.28572,-22.85714 c 0.41963,-2.72762 0,-6.8607 0,-10 m -38.32789,175.85574 c -1.71344,-33.28926 -3.42688,-66.57853 -5.14032,-99.8678 c -0.51404,-9.986777 -1.29807,-19.963314 -1.5421,-29.960337 c -0.18629,-7.631643 -0.51966,-15.305522 0.25175,-22.900355 c 0.50239,-4.946133 2.21809,-9.696106 3.54572,-14.487134 c 0.6848,-2.471238 1.8014,-4.809036 2.4862,-7.280273 c 0.12716,-0.458904 -0.3924,-1.073108 -0.0734,-1.426692 c 0.31897,-0.353573 1.0731,-0.392389 1.42669,-0.07343 c 0.35358,0.318966 0.0489,0.951131 0.0734,1.426691"
     transform="translate(1,0)"
     style="fill:none;stroke:#c0c0c0;stroke-width:14.4;stroke-linecap:round;stroke-linejoin:round;stroke-opacity:0.5" />
  <path
     d="m 194.28571,143.42858 c 21.94109,-7.3137 3.61477,-1.79557 27.14286,-7.14286 c 5.74368,-1.30538 11.48831,-2.63647 17.14286,-4.28572 c 5.78245,-1.68654 11.29931,-4.2534 17.14286,-5.71428 c 5.62014,-1.40504 11.47151,-1.67562 17.14285,-2.85714 c 12.91537,-2.69071 19.83738,-5.84089 32.85715,-7.14286 c 4.26444,-0.42645 8.57142,0 12.85714,0 c 5.71428,0 11.42857,0 17.14286,0 m -47.83715,317.09479 c 1.19728,-42.36404 2.39455,-84.72807 3.59183,-127.0921 c 0.17488,-6.18801 0.34977,-12.37602 0.52465,-18.56402 c 0.0269,-0.952 0.0538,-1.904 0.0807,-2.856 c 0.0135,-0.476 -0.30574,-1.10094 0.0404,-1.42801 c 0.3461,-0.32707 1.44145,-0.43564 1.428,0.0404 c -0.0134,0.476 -0.952,-0.0269 -1.428,-0.0404 m -40.51775,148.59767 c 1.20578,-24.25576 2.41156,-48.51153 3.61734,-72.76729 c 0.37828,-7.60965 1.01904,-15.21078 1.13485,-22.82895 c 0.0944,-6.20805 -0.27465,-12.41496 -0.50475,-18.61945 c -0.24153,-6.51281 -0.54184,-16.0731 -1.71877,-22.97081 c -0.25327,-1.4844 -0.92178,-2.87414 -1.21402,-4.35136 c -0.0924,-0.46714 0.0473,-0.95121 0.0709,-1.42681 c 0.0946,-1.90241 0.18914,-3.80482 0.28371,-5.70724 c 0.28371,-5.70724 0.56742,-11.41448 0.85114,-17.12171 m -35.26375,165.80041 c -0.88789,-38.56121 -1.77579,-77.12241 -2.66368,-115.68362 c -0.0877,-3.80852 -0.17539,-7.61703 -0.26308,-11.42554 c -0.12406,-5.38792 -0.90768,-9.31705 1.09934,-14.31482 c 0.63982,-1.59326 2.02545,-2.7974 2.75773,-4.35034 c 0.85689,-1.81722 -2.11694,-2.80917 1.36242,-2.88928 m 105.99651,-54.23838 c -0.86802,-13.02026 -1.98913,-4.1226 -2.85715,-17.14286 c -0.28508,-4.27622 0.21402,-8.57678 0,-12.85714 c -0.26265,-5.25314 -1.2001,-10.45956 -1.42857,-15.71429 c -0.24821,-5.70889 0,-11.42857 0,-17.14286 c 0,-17.61904 0,-35.23809 0,-52.85714 c 0,-15.23809 0,-30.47619 0,-45.71429 c 0,-2.38095 0,-4.7619 0,-7.14285 c 0,-1.42857 -0.34648,-2.8998 0,-4.28572 c 0.16334,-0.65332 1.12741,-0.82623 1.42857,-1.42857 c 0.21296,-0.42592 -0.47619,-1.42857 0,-1.42857 c 0.47619,0 0,0.95238 0,1.42857 m -30.18359,144.70063 c -1.35701,-6.21359 -1.62649,-12.61455 -2.92258,-18.83411 c -1.2288,-5.89671 -3.4757,-11.56947 -4.45135,-17.51332 c -0.33768,-2.05719 -2.89026,-37.62636 -2.89163,-38.88503 c -0.007,-6.19048 1.21006,-12.33332 1.35176,-18.52217 c 0.0771,-3.3663 -0.56964,-6.712689 -0.69691,-10.077458 c -0.10758,-2.844225 0.51025,-6.991515 0.72787,-9.973475 c 0.41593,-5.699133 0.83185,-11.398265 1.24778,-17.097388 c 0.27728,-3.799416 0.55457,-7.598841 0.83185,-11.398256 c 0.27729,-3.799425 0.24,-7.634993 0.83185,-11.398256 c 0.30504,-1.939552 1.31655,-3.703025 1.84071,-5.595151 c 0.25426,-0.917818 0.13864,-1.899708 0.20796,-2.849562 M 251.42857,204.85714 C 250.95238,202 250.14465,199.17866 250,196.28572 c -0.33291,-6.65835 0,-13.33334 0,-20 c 0,-18.57143 0,-37.14286 0,-55.71429 c 0,-11.90476 0,-23.80952 0,-35.71429 c 0,-4.28571 0,-8.57143 0,-12.85714 c 0,-3.80952 -0.23763,-7.62647 0,-11.42857 c 1.27715,-20.4343 1.15049,-2.47817 4.28572,-22.85714 c 0.41963,-2.72762 0,-6.8607 0,-10 m -38.32789,175.85574 c -1.71344,-33.28926 -3.42688,-66.57853 -5.14032,-99.8678 c -0.51404,-9.986777 -1.29807,-19.963314 -1.5421,-29.960337 c -0.18629,-7.631643 -0.51966,-15.305522 0.25175,-22.900355 c 0.50239,-4.946133 2.21809,-9.696106 3.54572,-14.487134 c 0.6848,-2.471238 1.8014,-4.809036 2.4862,-7.280273 c 0.12716,-0.458904 -0.3924,-1.073108 -0.0734,-1.426692 c 0.31897,-0.353573 1.0731,-0.392389 1.42669,-0.07343 c 0.35358,0.318966 0.0489,0.951131 0.0734,1.426691"
     transform="translate(-1,0)"
     style="fill:none;stroke:#c0c0c0;stroke-width:14.4;stroke-linecap:round;stroke-linejoin:round;stroke-opacity:0.5" />
  <path
     d="m 194.28571,143.42858 c 21.94109,-7.3137 3.61477,-1.79557 27.14286,-7.14286 c 5.74368,-1.30538 11.48831,-2.63647 17.14286,-4.28572 c 5.78245,-1.68654 11.29931,-4.2534 17.14286,-5.71428 c 5.62014,-1.40504 11.47151,-1.67562 17.14285,-2.85714 c 12.91537,-2.69071 19.83738,-5.84089 32.85715,-7.14286 c 4.26444,-0.42645 8.57142,0 12.85714,0 c 5.71428,0 11.42857,0 17.14286,0 m -47.83715,317.09479 c 1.19728,-42.36404 2.39455,-84.72807 3.59183,-127.0921 c 0.17488,-6.18801 0.34977,-12.37602 0.52465,-18.56402 c 0.0269,-0.952 0.0538,-1.904 0.0807,-2.856 c 0.0135,-0.476 -0.30574,-1.10094 0.0404,-1.42801 c 0.3461,-0.32707 1.44145,-0.43564 1.428,0.0404 c -0.0134,0.476 -0.952,-0.0269 -1.428,-0.0404 m -40.51775,148.59767 c 1.20578,-24.25576 2.41156,-48.51153 3.61734,-72.76729 c 0.37828,-7.60965 1.01904,-15.21078 1.13485,-22.82895 c 0.0944,-6.20805 -0.27465,-12.41496 -0.50475,-18.61945 c -0.24153,-6.51281 -0.54184,-16.0731 -1.71877,-22.97081 c -0.25327,-1.4844 -0.92178,-2.87414 -1.21402,-4.35136 c -0.0924,-0.46714 0.0473,-0.95121 0.0709,-1.42681 c 0.0946,-1.90241 0.18914,-3.80482 0.28371,-5.70724 c 0.28371,-5.70724 0.56742,-11.41448 0.85114,-17.12171 m -35.26375,165.80041 c -0.88789,-38.56121 -1.77579,-77.12241 -2.66368,-115.68362 c -0.0877,-3.80852 -0.17539,-7.61703 -0.26308,-11.42554 c -0.12406,-5.38792 -0.90768,-9.31705 1.09934,-14.31482 c 0.63982,-1.59326 2.02545,-2.7974 2.75773,-4.35034 c 0.85689,-1.81722 -2.11694,-2.80917 1.36242,-2.88928 m 105.99651,-54.23838 c -0.86802,-13.02026 -1.98913,-4.1226 -2.85715,-17.14286 c -0.28508,-4.27622 0.21402,-8.57678 0,-12.85714 c -0.26265,-5.25314 -1.2001,-10.45956 -1.42857,-15.71429 c -0.24821,-5.70889 0,-11.42857 0,-17.14286 c 0,-17.61904 0,-35.23809 0,-52.85714 c 0,-15.23809 0,-30.47619 0,-45.71429 c 0,-2.38095 0,-4.7619 0,-7.14285 c 0,-1.42857 -0.34648,-2.8998 0,-4.28572 c 0.16334,-0.65332 1.12741,-0.82623 1.42857,-1.42857 c 0.21296,-0.42592 -0.47619,-1.42857 0,-1.42857 c 0.47619,0 0,0.95238 0,1.42857 m -30.18359,144.70063 c -1.35701,-6.21359 -1.62649,-12.61455 -2.92258,-18.83411 c -1.2288,-5.89671 -3.4757,-11.56947 -4.45135,-17.51332 c -0.33768,-2.05719 -2.89026,-37.62636 -2.89163,-38.88503 c -0.007,-6.19048 1.21006,-12.33332 1.35176,-18.52217 c 0.0771,-3.3663 -0.56964,-6.712689 -0.69691,-10.077458 c -0.10758,-2.844225 0.51025,-6.991515 0.72787,-9.973475 c 0.41593,-5.699133 0.83185,-11.398265 1.24778,-17.097388 c 0.27728,-3.799416 0.55457,-7.598841 0.83185,-11.398256 c 0.27729,-3.799425 0.24,-7.634993 0.83185,-11.398256 c 0.30504,-1.939552 1.31655,-3.703025 1.84071,-5.595151 c 0.25426,-0.917818 0.13864,-1.899708 0.20796,-2.849562 M 251.42857,204.85714 C 250.95238,202 250.14465,199.17866 250,196.28572 c -0.33291,-6.65835 0,-13.33334 0,-20 c 0,-18.57143 0,-37.14286 0,-55.71429 c 0,-11.90476 0,-23.80952 0,-35.71429 c 0,-4.28571 0,-8.57143 0,-12.85714 c 0,-3.80952 -0.23763,-7.62647 0,-11.42857 c 1.27715,-20.4343 1.15049,-2.47817 4.28572,-22.85714 c 0.41963,-2.72762 0,-6.8607 0,-10 m -38.32789,175.85574 c -1.71344,-33.28926 -3.42688,-66.57853 -5.14032,-99.8678 c -0.51404,-9.986777 -1.29807,-19.963314 -1.5421,-29.960337 c -0.18629,-7.631643 -0.51966,-15.305522 0.25175,-22.900355 c 0.50239,-4.946133 2.21809,-9.696106 3.54572,-14.487134 c 0.6848,-2.471238 1.8014,-4.809036 2.4862,-7.280273 c 0.12716,-0.458904 -0.3924,-1.073108 -0.0734,-1.426692 c 0.31897,-0.353573 1.0731,-0.392389 1.42669,-0.07343 c 0.35358,0.318966 0.0489,0.951131 0.0734,1.426691"
     transform="translate(0,1)"
     style="fill:none;stroke:#c0c0c0;stroke-width:14.4;stroke-linecap:round;stroke-linejoin:round;stroke-opacity:0.5" />
  <path
     d="m 194.28571,143.42858 c 21.94109,-7.3137 3.61477,-1.79557 27.14286,-7.14286 c 5.74368,-1.30538 11.48831,-2.63647 17.14286,-4.28572 c 5.78245,-1.68654 11.29931,-4.2534 17.14286,-5.71428 c 5.62014,-1.40504 11.47151,-1.67562 17.14285,-2.85714 c 12.91537,-2.69071 19.83738,-5.84089 32.85715,-7.14286 c 4.26444,-0.42645 8.57142,0 12.85714,0 c 5.71428,0 11.42857,0 17.14286,0 m -47.83715,317.09479 c 1.19728,-42.36404 2.39455,-84.72807 3.59183,-127.0921 c 0.17488,-6.18801 0.34977,-12.37602 0.52465,-18.56402 c 0.0269,-0.952 0.0538,-1.904 0.0807,-2.856 c 0.0135,-0.476 -0.30574,-1.10094 0.0404,-1.42801 c 0.3461,-0.32707 1.44145,-0.43564 1.428,0.0404 c -0.0134,0.476 -0.952,-0.0269 -1.428,-0.0404 m -40.51775,148.59767 c 1.20578,-24.25576 2.41156,-48.51153 3.61734,-72.76729 c 0.37828,-7.60965 1.01904,-15.21078 1.13485,-22.82895 c 0.0944,-6.20805 -0.27465,-12.41496 -0.50475,-18.61945 c -0.24153,-6.51281 -0.54184,-16.0731 -1.71877,-22.97081 c -0.25327,-1.4844 -0.92178,-2.87414 -1.21402,-4.35136 c -0.0924,-0.46714 0.0473,-0.95121 0.0709,-1.42681 c 0.0946,-1.90241 0.18914,-3.80482 0.28371,-5.70724 c 0.28371,-5.70724 0.56742,-11.41448 0.85114,-17.12171 m -35.26375,165.80041 c -0.88789,-38.56121 -1.77579,-77.12241 -2.66368,-115.68362 c -0.0877,-3.80852 -0.17539,-7.61703 -0.26308,-11.42554 c -0.12406,-5.38792 -0.90768,-9.31705 1.09934,-14.31482 c 0.63982,-1.59326 2.02545,-2.7974 2.75773,-4.35034 c 0.85689,-1.81722 -2.11694,-2.80917 1.36242,-2.88928 m 105.99651,-54.23838 c -0.86802,-13.02026 -1.98913,-4.1226 -2.85715,-17.14286 c -0.28508,-4.27622 0.21402,-8.57678 0,-12.85714 c -0.26265,-5.25314 -1.2001,-10.45956 -1.42857,-15.71429 c -0.24821,-5.70889 0,-11.42857 0,-17.14286 c 0,-17.61904 0,-35.23809 0,-52.85714 c 0,-15.23809 0,-30.47619 0,-45.71429 c 0,-2.38095 0,-4.7619 0,-7.14285 c 0,-1.42857 -0.34648,-2.8998 0,-4.28572 c 0.16334,-0.65332 1.12741,-0.82623 1.42857,-1.42857 c 0.21296,-0.42592 -0.47619,-1.42857 0,-1.42857 c 0.47619,0 0,0.95238 0,1.42857 m -30.18359,144.70063 c -1.35701,-6.21359 -1.62649,-12.61455 -2.92258,-18.83411 c -1.2288,-5.89671 -3.4757,-11.56947 -4.45135,-17.51332 c -0.33768,-2.05719 -2.89026,-37.62636 -2.89163,-38.88503 c -0.007,-6.19048 1.21006,-12.33332 1.35176,-18.52217 c 0.0771,-3.3663 -0.56964,-6.712689 -0.69691,-10.077458 c -0.10758,-2.844225 0.51025,-6.991515 0.72787,-9.973475 c 0.41593,-5.699133 0.83185,-11.398265 1.24778,-17.097388 c 0.27728,-3.799416 0.55457,-7.598841 0.83185,-11.398256 c 0.27729,-3.799425 0.24,-7.634993 0.83185,-11.398256 c 0.30504,-1.939552 1.31655,-3.703025 1.84071,-5.595151 c 0.25426,-0.917818 0.13864,-1.899708 0.20796,-2.849562 M 251.42857,204.85714 C 250.95238,202 250.14465,199.17866 250,196.28572 c -0.33291,-6.65835 0,-13.33334 0,-20 c 0,-18.57143 0,-37.14286 0,-55.71429 c 0,-11.90476 0,-23.80952 0,-35.71429 c 0,-4.28571 0,-8.57143 0,-12.85714 c 0,-3.80952 -0.23763,-7.62647 0,-11.42857 c 1.27715,-20.4343 1.15049,-2.47817 4.28572,-22.85714 c 0.41963,-2.72762 0,-6.8607 0,-10 m -38.32789,175.85574 c -1.71344,-33.28926 -3.42688,-66.57853 -5.14032,-99.8678 c -0.51404,-9.986777 -1.29807,-19.963314 -1.5421,-29.960337 c -0.18629,-7.631643 -0.51966,-15.305522 0.25175,-22.900355 c 0.50239,-4.946133 2.21809,-9.696106 3.54572,-14.487134 c 0.6848,-2.471238 1.8014,-4.809036 2.4862,-7.280273 c 0.12716,-0.458904 -0.3924,-1.073108 -0.0734,-1.426692 c 0.31897,-0.353573 1.0731,-0.392389 1.42669,-0.07343 c 0.35358,0.318966 0.0489,0.951131 0.0734,1.426691"
     transform="translate(0,-1)"
     style="fill:none;stroke:#c0c0c0;stroke-width:14.4;stroke-linecap:round;stroke-linejoin:round;stroke-opacity:0.5" />
</svg>
