<?xml version="1.0" encoding="UTF-8" standalone="no"?>
<!-- Copyright (c) 2012 Vašek Potoček -->

<svg
   xmlns="http://www.w3.org/2000/svg"
   version="1.1"
   width="512"
   height="512">
  <path
     d="m 114.9375,202.5 v 107 h 24.84375 v -8.375 l -14.0625,0 v -90.25 h 14.0625 v -8.375 l -24.84375,0 z m 281.90625,0 v 8.375 h 14.0625 v 90.25 l -14.0625,0 v 8.375 h 24.84375 v -107 l -24.84375,0 z m -350.28125,3.6875 l -26.71875,32.65625 h 10.4375 l 21.4375,-23.15625 l 21.5,23.15625 h 10.4375 l -26.71875,-32.65625 l -10.375,0 z m 148.125,20.28125 c -3.43753,0 -6.9844,0.40631 -10.65625,1.1875 c -3.63283,0.74225 -7.45314,1.85162 -11.4375,3.375 v 10.78125 c 3.55467,-2.0312 7.21873,-3.57026 10.96875,-4.625 c 3.74997,-1.05463 7.45309,-1.56244 11.125,-1.5625 c 5.74215,0 9.91402,1.17974 12.53125,3.5625 c 2.61714,2.3438 3.9609,6.14068 4,11.375 v 1.6875 l -14.5,0 c -9.49221,0 -16.6719,1.89847 -21.59375,5.6875 c -4.88282,3.78909 -7.34376,9.32034 -7.34375,16.625 c 0,6.32814 1.98437,11.39845 5.96875,15.1875 c 3.98436,3.75 9.32029,5.625 16,5.625 c 4.99996,0 9.24215,-0.91407 12.71875,-2.75 c 3.51558,-1.875 6.44526,-4.78124 8.75,-8.6875 v 9.75 h 10.8125 v -37.4375 c 0,-5.74215 -0.31256,-10.05464 -0.9375,-12.90625 c -0.62506,-2.89057 -1.67194,-5.29682 -3.15625,-7.25 c -2.38287,-3.20307 -5.50787,-5.61713 -9.375,-7.21875 c -3.82817,-1.6015 -8.44535,-2.40618 -13.875,-2.40625 z m 122.96875,1.46875 v 8.625 h 36.28125 l -37.6875,47.15625 v 9.96875 h 49.0625 v -8.8125 l -37.6875,0 l 37.6875,-47.09375 v -9.84375 l -47.65625,0 z m 159.75,3.46875 v 17.75 h 14.75 v -17.75 l -14.75,0 z m -239.5,25.1875 v 8.25 h 72.25 v -8.25 l -72.25,0 z m -40.34375,4.09375 h 3.5625 h 10.09375 v 2.40625 c -0.0391,7.26564 -1.75786,12.95314 -5.15625,17.09375 c -3.39848,4.10157 -8.09379,6.15625 -14.03125,6.15625 c -4.21878,0 -7.49221,-1.09375 -9.875,-3.28125 c -2.38283,-2.18749 -3.59377,-5.24218 -3.59375,-9.1875 c 0,-4.37498 1.58592,-7.65623 4.75,-9.84375 c 3.2031,-2.22653 7.96091,-3.34371 14.25,-3.34375 z m 279.84375,15.125 v 17.875 h 14.75 v -17.875 l -14.75,0 z"
     fill="#ffffff" />
</svg>
