<?xml version="1.0" encoding="UTF-8" standalone="no"?>
<!-- Copyright (c) 2012 Vašek Potoček -->

<svg
   xmlns="http://www.w3.org/2000/svg"
   version="1.1"
   width="512"
   height="512">
  <defs>
    <linearGradient
       x1="256"
       y1="64"
       x2="256"
       y2="448"
       id="scroll"
       gradientUnits="userSpaceOnUse">
      <stop
         style="stop-color:#c0c0c0;stop-opacity:0"
         offset="0.0" />
      <stop
         style="stop-color:#c0c0c0;stop-opacity:1"
         offset="0.25" />
      <stop
         style="stop-color:#ffffff;stop-opacity:1"
         offset="0.25" />
      <stop
         style="stop-color:#ffffff;stop-opacity:1"
         offset="0.5" />
      <stop
         style="stop-color:#ffffff;stop-opacity:1"
         offset="0.75" />
      <stop
         style="stop-color:#c0c0c0;stop-opacity:1"
         offset="0.75" />
      <stop
         style="stop-color:#c0c0c0;stop-opacity:0"
         offset="1.0" />
    </linearGradient>
  </defs>
  <path
     d="m 438.03125,59.25 c -9.96096,0 -18.06252,3.46102 -24.3125,10.375 c -6.21095,6.91413 -9.34375,15.57819 -9.34375,25.96875 v 15.15625 c 0,10.42972 3.1328,19.09377 9.34375,25.96875 c 6.24998,6.87501 14.35154,10.3125 24.3125,10.3125 c 3.59371,0 6.98432,-0.44531 10.1875,-1.34375 c 3.20307,-0.89844 6.17182,-2.24218 8.90625,-4 l 13,12.5 l 7.90625,-7.5625 l -12.71875,-12.375 c 2.42181,-3.16405 4.30461,-6.73436 5.59375,-10.71875 c 1.32805,-4.02341 1.96867,-8.28903 1.96875,-12.78125 v -15.15625 c 0,-10.42962 -3.23444,-19.09368 -9.71875,-25.96875 c -6.44537,-6.91398 -14.81255,-10.37492 -25.125,-10.375 z m -404.0625,1.25 v 85.3125 h 33.8125 c 8.671823,0 15.546816,-2.05468 20.625,-6.15625 c 5.078056,-4.14061 7.593678,-10.12498 7.59375,-17.9375 c 0,-5.50778 -1.62507,-10.28122 -4.90625,-14.34375 c -3.242251,-4.06246 -7.664121,-6.49995 -13.25,-7.28125 c 3.749943,-1.52339 6.765564,-3.73433 9.03125,-6.625 c 2.26556,-2.92964 3.406184,-6.23431 3.40625,-9.90625 c 0,-7.69524 -2.5235,-13.45305 -7.5625,-17.28125 C 77.679635,62.41414 70.687453,60.50008 61.78125,60.5 h -27.8125 z m 72.71875,0 v 9.0625 h 44.9375 l -45.59375,67.6875 v 8.5625 h 60.6875 v -9.03125 h -47.6875 l 45.78125,-68.03125 v -8.25 h -58.125 z m 75.28125,0 v 85.3125 h 26.84375 c 11.13277,0 20.05463,-3.42187 26.8125,-10.21875 c 6.79681,-6.83592 10.21868,-15.69529 10.21875,-26.59375 v -11.65625 C 245.84368,86.48444 242.42181,77.6485 235.625,70.8125 C 228.86713,63.93758 219.94527,60.50008 208.8125,60.5 h -26.84375 z m 153.46875,0 v 9.0625 h 44.9375 l -45.59375,67.6875 v 8.5625 h 60.6875 v -9.03125 h -47.6875 l 45.78125,-68.03125 v -8.25 h -58.125 z m -72.625,0.03125 v 85.28125 h 11.5625 v -37 h 20.90625 c 4.5312,0 8.14839,1.40629 10.84375,4.21875 c 2.69526,2.81253 4.03119,6.5469 4.03125,11.15625 v 7.78125 c 0,2.73439 0.22651,5.39063 0.65625,7.96875 c 0.42963,2.57813 1.414,4.54687 2.9375,5.875 h 11.875 v -1.40625 c -1.44538,-1.32813 -2.44539,-3.04687 -3.03125,-5.15625 c -0.58601,-2.10937 -0.87507,-4.49999 -0.875,-7.15625 v -8.03125 c 0,-5.03903 -1.05475,-9.25778 -3.125,-12.65625 c -2.03131,-3.43746 -5.37506,-5.91402 -10.0625,-7.4375 c 4.37494,-1.91402 7.70307,-4.50776 9.96875,-7.75 c 2.30462,-3.24213 3.43743,-7.03119 3.4375,-11.40625 c 0,-7.89055 -2.47663,-13.9218 -7.4375,-18.0625 c -4.92193,-4.14054 -12.03911,-6.21867 -21.375,-6.21875 h -30.3125 z M 438.03125,68.75 c 7.10933,0 12.74995,2.50008 16.96875,7.5 c 4.21869,5.00007 6.34368,11.40631 6.34375,19.21875 v 15.28125 c 0,7.92972 -2.12506,14.40628 -6.34375,19.40625 c -4.17974,4.96095 -9.82036,7.43751 -16.96875,7.4375 c -6.71878,0 -12.10159,-2.49999 -16.125,-7.5 c -3.98439,-4.99998 -5.96877,-11.45309 -5.96875,-19.34375 v -15.28125 c 0,-7.81244 1.98436,-14.21868 5.96875,-19.21875 c 4.02341,-4.99992 9.40622,-7.49992 16.125,-7.5 z M 45.5,69.5625 h 16.28125 c 5.468707,0 9.671828,1.16414 12.5625,3.46875 c 2.929635,2.26569 4.374946,5.70319 4.375,10.3125 c 0,4.21881 -1.335991,7.52349 -4.03125,9.90625 c -2.69536,2.3438 -6.203169,3.50005 -10.5,3.5 h -18.6875 v -27.1875 z m 148,0 h 15.3125 c 7.89058,0 14.0937,2.61726 18.625,7.8125 c 4.57025,5.19537 6.84368,11.79693 6.84375,19.84375 v 11.78125 c 0,8.12503 -2.2735,14.77346 -6.84375,19.96875 c -4.5313,5.19532 -10.73442,7.81251 -18.625,7.8125 h -15.3125 v -67.21875 z m 80.875,0 h 18.75 c 5.93745,0 10.28901,1.34383 13.0625,4 c 2.81244,2.61726 4.21869,6.32038 4.21875,11.125 c 0,5.07819 -1.45318,8.87505 -4.34375,11.375 c -2.85161,2.46099 -7.53911,3.68754 -14.0625,3.6875 h -17.625 v -30.1875 z M 45.5,105.78125 h 21.6875 h 0.75 c 5.039014,0.19536 9.062448,1.73441 12.03125,4.625 c 2.968692,2.89066 4.43744,6.71097 4.4375,11.4375 c 0,4.76565 -1.476621,8.44533 -4.40625,11.0625 c -2.890678,2.57814 -6.945361,3.87501 -12.21875,3.875 h -22.28125 v -31 z M 67.40625,215.6875 c -9.648467,0 -17.531272,3.43759 -23.625,10.3125 c -6.054697,6.83601 -9.093757,15.5235 -9.09375,26.03125 v 15.15625 c 0,10.50784 3.039053,19.19533 9.09375,26.03125 c 6.093728,6.83594 13.976533,10.25 23.625,10.25 c 9.492139,0 17.124943,-2.70312 22.90625,-8.09375 c 5.781181,-5.39061 8.593679,-12.08592 8.4375,-20.09375 l -0.125,-0.34375 h -11.0625 c 0,6.09378 -1.765683,10.86721 -5.28125,14.34375 c -3.515676,3.43751 -8.468796,5.15626 -14.875,5.15625 c -6.445345,0 -11.578153,-2.58592 -15.40625,-7.78125 c -3.828145,-5.19529 -5.750019,-11.69529 -5.75,-19.46875 v -15.28125 c 0,-7.69525 1.921855,-14.14837 5.75,-19.34375 c 3.828097,-5.19524 8.960905,-7.78117 15.40625,-7.78125 c 6.406204,0 11.359324,1.74226 14.875,5.21875 c 3.515567,3.47663 5.281191,8.17975 5.28125,14.15625 h 11.0625 l 0.125,-0.34375 c 0.156179,-8.47649 -2.609443,-15.25774 -8.3125,-20.375 c -5.703182,-5.15617 -13.382861,-7.74991 -23.03125,-7.75 z m 221.5,0 c -8.28128,0 -14.95314,2.23446 -20.03125,6.6875 c -5.07813,4.41414 -7.62501,9.96882 -7.625,16.6875 c 0,6.36724 2.36718,11.63287 7.09375,15.8125 c 4.7656,4.17973 11.43747,7.32816 20.03125,9.4375 c 7.22652,1.87503 12.24995,3.97659 15.0625,6.28125 c 2.81244,2.30471 4.21869,5.32034 4.21875,9.03125 c 0,4.2969 -1.63287,7.84376 -4.875,10.65625 c -3.20318,2.77344 -7.48442,4.15626 -12.875,4.15625 c -5.11722,0 -9.71878,-1.45312 -13.78125,-4.34375 c -4.06252,-2.92968 -6.09377,-7.05467 -6.09375,-12.40625 h -11 l -0.125,0.34375 c -0.19532,7.73439 2.83593,13.92188 9.125,18.53125 c 6.3281,4.60937 13.63278,6.90625 21.875,6.90625 c 8.63277,0 15.66401,-2.25781 21.09375,-6.75 c 5.46869,-4.53124 8.18743,-10.26561 8.1875,-17.21875 c 0,-6.24997 -2.27351,-11.35934 -6.84375,-15.34375 c -4.53131,-3.98433 -11.17974,-7.13277 -19.96875,-9.4375 c -6.99222,-1.83589 -12.01565,-3.97651 -15.0625,-6.4375 c -3.00783,-2.49995 -4.53128,-5.62494 -4.53125,-9.375 c 0,-4.21868 1.36717,-7.64056 4.0625,-10.21875 c 2.69529,-2.61712 6.7109,-3.90617 12.0625,-3.90625 c 5.27339,0 9.57807,1.58601 12.9375,4.75 c 3.39838,3.16413 5.0937,7.15631 5.09375,12 h 11.03125 l 0.1875,-0.34375 c 0.15618,-6.7968 -2.461,-12.7343 -7.8125,-17.8125 c -5.31255,-5.1171 -12.45317,-7.68741 -21.4375,-7.6875 z M 139,216.90625 l -30.75,85.3125 h 11.78125 l 7.59375,-21.96875 h 32.125 l 7.5,21.96875 h 11.78125 l -30.125,-85.3125 h -9.90625 z m 54.21875,0 v 85.3125 h 52.5625 v -9 h -41.03125 v -30.53125 h 35.03125 v -9.09375 h -35.03125 v -27.59375 h 40.375 v -9.09375 h -51.90625 z m 166.9375,0 l -30.75,85.3125 h 11.78125 l 7.59375,-21.96875 h 32.125 l 7.5,21.96875 h 11.78125 l -30.125,-85.3125 h -9.90625 z m 54.34375,0.0625 v 85.25 h 11.53125 v -36.96875 h 20.90625 c 4.5312,0 8.14839,1.40628 10.84375,4.21875 c 2.69526,2.81253 4.06244,6.5469 4.0625,11.15625 v 7.78125 c 0,2.73438 0.19525,5.39063 0.625,7.96875 c 0.42963,2.57812 1.414,4.51563 2.9375,5.84375 h 11.90625 v -1.40625 c -1.44539,-1.32812 -2.47663,-3.04687 -3.0625,-5.15625 c -0.586,-2.10936 -0.87507,-4.46874 -0.875,-7.125 v -8.03125 c 0,-5.03904 -1.02351,-9.25778 -3.09375,-12.65625 c -2.03132,-3.43746 -5.40631,-5.91402 -10.09375,-7.4375 c 4.37494,-1.91401 7.70306,-4.50777 9.96875,-7.75 c 2.30462,-3.24214 3.43743,-7.0312 3.4375,-11.40625 c 0,-7.89056 -2.47663,-13.9218 -7.4375,-18.0625 c -4.92194,-4.14054 -12.03911,-6.21867 -21.375,-6.21875 h -30.28125 z M 426.03125,226 h 18.75 c 5.93745,0 10.28902,1.34382 13.0625,4 c 2.81245,2.61725 4.2187,6.32038 4.21875,11.125 c 0,5.07818 -1.45319,8.87505 -4.34375,11.375 c -2.85162,2.46098 -7.53911,3.68755 -14.0625,3.6875 h -17.625 v -30.1875 z m -282.34375,7.96875 h 0.34375 l 12.4375,36.625 h -25.5 l 12.71875,-36.625 z m 221.15625,0 h 0.34375 l 12.4375,36.625 h -25.5 l 12.71875,-36.625 z m 81.28125,131 c -8.28128,0 -14.98439,2.23446 -20.0625,6.6875 c -5.07813,4.41414 -7.59376,9.96882 -7.59375,16.6875 c 0,6.36724 2.36718,11.63286 7.09375,15.8125 c 4.7656,4.17973 11.43748,7.32817 20.03125,9.4375 c 7.22652,1.87504 12.24995,3.9766 15.0625,6.28125 c 2.81244,2.30472 4.21869,5.32034 4.21875,9.03125 c 0,4.2969 -1.63287,7.84377 -4.875,10.65625 c -3.20318,2.77345 -7.48442,4.15626 -12.875,4.15625 c -5.11722,0 -9.71878,-1.45311 -13.78125,-4.34375 c -4.06252,-2.92967 -6.09377,-7.05467 -6.09375,-12.40625 h -11.03125 l -0.0937,0.34375 c -0.19532,7.73439 2.83593,13.92188 9.125,18.53125 c 6.3281,4.60937 13.63278,6.90625 21.875,6.90625 c 8.63277,0 15.66401,-2.25781 21.09375,-6.75 c 5.46869,-4.53124 8.18743,-10.2656 8.1875,-17.21875 c 0,-6.24997 -2.27351,-11.35934 -6.84375,-15.34375 c -4.53131,-3.98433 -11.21099,-7.13277 -20,-9.4375 c -6.99222,-1.83589 -12.01565,-3.97652 -15.0625,-6.4375 c -3.00783,-2.49995 -4.50003,-5.62494 -4.5,-9.375 c 0,-4.21869 1.33592,-7.64055 4.03125,-10.21875 c 2.69529,-2.61711 6.74215,-3.90617 12.09375,-3.90625 c 5.27339,0 9.57807,1.58601 12.9375,4.75 c 3.39838,3.16413 5.0937,7.15632 5.09375,12 h 11.03125 l 0.15625,-0.34375 c 0.15618,-6.79681 -2.42975,-12.7343 -7.78125,-17.8125 c -5.31255,-5.1171 -12.45317,-7.68741 -21.4375,-7.6875 z m -410.53125,1.21875 v 85.3125 h 26.84375 c 11.132765,0 20.05463,-3.39062 26.8125,-10.1875 c 6.796804,-6.83592 10.218676,-15.69528 10.21875,-26.59375 v -11.65625 C 99.468676,392.20318 96.046804,383.336 89.25,376.5 C 82.49213,369.62508 73.570265,366.18758 62.4375,366.1875 h -26.84375 z m 83.25,0 v 85.3125 h 33.78125 c 8.67183,0 15.54682,-2.02344 20.625,-6.125 c 5.07806,-4.14062 7.62493,-10.12499 7.625,-17.9375 c 0,-5.50778 -1.62507,-10.31247 -4.90625,-14.375 c -3.24225,-4.06246 -7.66412,-6.4687 -13.25,-7.25 c 3.74994,-1.52339 6.76556,-3.73433 9.03125,-6.625 c 2.26556,-2.92963 3.37494,-6.23432 3.375,-9.90625 c 0,-7.69525 -2.49225,-13.45305 -7.53125,-17.28125 c -5.03911,-3.8671 -12.03129,-5.81242 -20.9375,-5.8125 h -27.8125 z m 78.4375,0 v 85.3125 h 11.53125 v -37.71875 h 35.96875 v -9.09375 h -35.96875 v -29.40625 h 41.9375 v -9.09375 h -53.46875 z m 60.96875,0 v 9.09375 h 27.78125 v 76.21875 h 11.53125 v -76.21875 h 28.125 v -9.09375 h -67.4375 z m 81.59375,0 v 85.3125 h 33.8125 c 8.67182,0 15.54682,-2.02344 20.625,-6.125 c 5.07806,-4.14062 7.62493,-10.12499 7.625,-17.9375 c 0,-5.50778 -1.65632,-10.31247 -4.9375,-14.375 c -3.24225,-4.06246 -7.66412,-6.4687 -13.25,-7.25 c 3.74995,-1.52339 6.76557,-3.73433 9.03125,-6.625 c 2.26556,-2.92963 3.40618,-6.23432 3.40625,-9.90625 c 0,-7.69525 -2.5235,-13.45305 -7.5625,-17.28125 c -5.03912,-3.8671 -12.00005,-5.81242 -20.90625,-5.8125 h -27.84375 z m -292.71875,9.09375 h 15.3125 c 7.890581,0 14.093699,2.58601 18.625,7.78125 c 4.570252,5.19538 6.843688,11.82818 6.84375,19.875 v 11.78125 c 0,8.12503 -2.273498,14.77346 -6.84375,19.96875 c -4.531301,5.19533 -10.734419,7.81251 -18.625,7.8125 h -15.3125 v -67.21875 z m 83.25,0 h 16.28125 c 5.46871,0 9.64058,1.16414 12.53125,3.46875 c 2.92964,2.2657 4.40619,5.70319 4.40625,10.3125 c 0,4.21881 -1.33599,7.52349 -4.03125,9.90625 c -2.69536,2.3438 -6.20317,3.50005 -10.5,3.5 h -18.6875 v -27.1875 z m 221,0 h 16.3125 c 5.4687,0 9.64058,1.16414 12.53125,3.46875 c 2.92963,2.2657 4.4062,5.70319 4.40625,10.3125 c 0,4.21881 -1.36724,7.52349 -4.0625,9.90625 c -2.69536,2.3438 -6.17192,3.50005 -10.46875,3.5 h -18.71875 v -27.1875 z m -221,36.21875 h 21.6875 h 0.75 c 5.03901,0.19535 9.0312,1.73442 12,4.625 c 2.9687,2.89066 4.46869,6.71096 4.46875,11.4375 c 0,4.76564 -1.47662,8.44533 -4.40625,11.0625 c -2.89068,2.57814 -6.97661,3.87501 -12.25,3.875 h -22.25 v -31 z m 221,0 h 21.6875 h 0.78125 c 5.03902,0.19535 9.0312,1.73442 12,4.625 c 2.96869,2.89066 4.43744,6.71096 4.4375,11.4375 c 0,4.76564 -1.44537,8.44533 -4.375,11.0625 c -2.89067,2.57814 -6.97661,3.87501 -12.25,3.875 h -22.28125 v -31 z"
     style="fill:url(#scroll)" />
</svg>
