<?xml version="1.0" encoding="UTF-8" standalone="no"?>
<!-- Copyright (c) 2012 Vašek Potoček -->

<svg
   xmlns="http://www.w3.org/2000/svg"
   version="1.1"
   width="512"
   height="512">
  <defs>
    <linearGradient
       x1="-224.37865"
       y1="66.558212"
       x2="-152.43951"
       y2="138.49734"
       id="vlajka2"
       gradientUnits="userSpaceOnUse"
       gradientTransform="matrix(0.75756338,0,0,0.75756338,214.67766,170.45657)">
      <stop
         style="stop-color:#808080;stop-opacity:1"
         offset="0" />
      <stop
         style="stop-color:#808080;stop-opacity:1"
         offset="0.5" />
      <stop
         style="stop-color:#ffffff;stop-opacity:1"
         offset="0.5" />
      <stop
         style="stop-color:#ffffff;stop-opacity:1"
         offset="1" />
    </linearGradient>
    <linearGradient
       x1="-224.37865"
       y1="66.558212"
       x2="-152.43951"
       y2="138.49734"
       id="vlajka1"
       gradientUnits="userSpaceOnUse"
       gradientTransform="matrix(0.75756338,0,0,0.75756338,-367.88248,-166.21145)">
      <stop
         style="stop-color:#808080;stop-opacity:1"
         offset="0" />
      <stop
         style="stop-color:#808080;stop-opacity:1"
         offset="0.5" />
      <stop
         style="stop-color:#ffffff;stop-opacity:1"
         offset="0.5" />
      <stop
         style="stop-color:#ffffff;stop-opacity:1"
         offset="1" />
    </linearGradient>
  </defs>
  <path
     d="m 212.3125,91.03125 c -0.37303,0.04413 -0.72933,0.172995 -1.09375,0.375 c -1.4577,0.808018 -1.96427,2.511047 -1.15625,3.96875 l 14.40625,25.96875 c -27.65711,14.38348 -46.3563,41.71398 -46.40625,73.09375 h 182 c -0.05,-31.37046 -18.73142,-58.70685 -46.375,-73.09375 L 328.09375,95.375 c 0.80802,-1.4577 0.3327,-3.160732 -1.125,-3.96875 c -1.45771,-0.808017 -3.16074,-0.3327 -3.96875,1.125 l -14.5625,26.3125 c -11.92013,-5.29229 -25.26306,-8.28125 -39.375,-8.28125 c -14.11194,0 -27.45487,2.98896 -39.375,8.28125 L 215.125,92.5625 c -0.60602,-1.093277 -1.6934,-1.663642 -2.8125,-1.53125 z m 14.75,54.9375 c 4.15472,0 7.59375,3.43903 7.59375,7.59375 c 0,4.15472 -3.43903,7.59375 -7.59375,7.59375 c -4.15472,0 -7.59375,-3.43903 -7.59375,-7.59375 c 0,-4.15472 3.43903,-7.59375 7.59375,-7.59375 z m 84,0 c 4.15472,0 7.59375,3.43903 7.59375,7.59375 c 0,4.15472 -3.43903,7.59375 -7.59375,7.59375 c -4.15472,0 -7.59375,-3.43903 -7.59375,-7.59375 c 0,-4.15472 3.43903,-7.59375 7.59375,-7.59375 z m -246,55.3125 c -11.369173,0 -20.375,9.00583 -20.375,20.375 c 0,11.36917 9.005827,20.40625 20.375,20.40625 h 85 c 11.36917,0 20.40625,-9.03708 20.40625,-20.40625 c 0,-11.36917 -9.03708,-20.375 -20.40625,-20.375 h -85 z m 113,0.375 v 131.90625 c 0,12.188 9.812,22 22,22 h 14.625 v 45 c 0,11.36917 9.00583,20.375 20.375,20.375 c 11.36917,0 20.40625,-9.00583 20.40625,-20.375 v -45 h 27.21875 v 45 c 0,11.36917 9.00583,20.375 20.375,20.375 c 11.36917,0 20.40625,-9.00583 20.40625,-20.375 v -45 h 14.59375 c 12.188,0 22,-9.812 22,-22 v -131.90625 h -182 z m 208.75,2.71875 c -5.20489,0 -10.41789,2.01164 -14.4375,6.03125 c -8.03922,8.03922 -8.03922,20.83578 0,28.875 l 60.09375,60.09375 c 8.03922,8.03922 20.80454,8.00797 28.84375,-0.0313 c 8.03922,-8.03922 8.07047,-20.80454 0.0313,-28.84375 L 401.25,210.40625 c -4.01961,-4.01961 -9.23261,-6.03125 -14.4375,-6.03125 z"
     fill="#c0c0c0" />
  <rect
     width="54.498447"
     height="54.498447"
     x="-537.86353"
     y="-115.78942"
     transform="matrix(-0.70710678,-0.70710678,-0.70710678,0.70710678,0,0)"
     fill="url(#vlajka1)" />
  <rect
     width="54.498447"
     height="54.498447"
     x="44.696606"
     y="220.87862"
     fill="url(#vlajka2)" />
</svg>
