<?xml version="1.0" encoding="UTF-8" standalone="no"?>
<!-- Copyright (c) 2012 Vašek Potoček -->

<svg
   xmlns="http://www.w3.org/2000/svg"
   version="1.1"
   width="512"
   height="512">
  <defs>
    <linearGradient
       x1="65.9375"
       y1="224.75"
       x2="462.28125"
       y2="224.75"
       id="grad1"
       gradientUnits="userSpaceOnUse" >
      <stop
         style="stop-color:#808080;stop-opacity:1"
         offset="0" />
      <stop
         style="stop-color:#c0c0c0;stop-opacity:1"
         offset="1" />
    </linearGradient>
    <linearGradient
       x1="446.06317"
       y1="287.76556"
       x2="46.46875"
       y2="287.76556"
       id="grad2"
       gradientUnits="userSpaceOnUse" >
      <stop
         style="stop-color:#808080;stop-opacity:1"
         offset="0" />
      <stop
         style="stop-color:#c0c0c0;stop-opacity:1"
         offset="1" />
    </linearGradient>
  </defs>
  <path
     d="m 413.5625,186.3125 c 2.61754,2.95757 4.58226,6.34595 5.84375,9.90625 c -12.9772,2.9974 -25.11062,8.77832 -35.15625,16.3125 c -6.94036,5.20524 -12.92171,11.32763 -17.40625,18.0625 C 341.9201,182.52763 246.50432,181.76796 219.4375,228.375 c -13.32091,-22.95344 -43.2342,-34.4375 -73.15625,-34.4375 c -40.1715,0 -80.34375,20.691 -80.34375,62.0625 c 0,3.77155 3.791915,7.1875 7.1875,7.1875 c 3.395585,0 7.21875,-3.41595 7.21875,-7.1875 c 0,-63.543 131.875,-63.543 131.875,0 c 0,3.77155 3.79192,7.1875 7.1875,7.1875 c 3.39559,0 7.21875,-3.41595 7.21875,-7.1875 c 0,-63.543 131.875,-63.543 131.875,0 c 0,3.77155 3.79192,7.1875 7.1875,7.1875 c 3.39559,0 7.21875,-3.41595 7.21875,-7.1875 c 0,-10.51459 7.51458,-22.60474 20,-31.96875 c 7.89905,-5.92425 17.58279,-10.62235 27.8125,-13.28125 c -0.56078,3.50209 -1.75222,6.91513 -3.625,10.09375 l 45.1875,-22.0625 l -48.71875,-12.46875 z"
     fill="url(#grad1)" />
  <path
     d="m 438.75,248.6875 c -3.39588,0.0258 -7.15272,3.54052 -7.09375,7.3125 c 0,63.543 -131.875,63.543 -131.875,0 c 0,-3.77155 -3.82316,-7.1875 -7.21875,-7.1875 c -3.39558,0 -7.1875,3.41595 -7.1875,7.1875 c 0,63.543 -131.875,63.543 -131.875,0 c 0,-3.77155 -3.82316,-7.1875 -7.21875,-7.1875 c -3.39558,0 -7.1875,3.41595 -7.1875,7.1875 c 0,10.51459 -7.51458,22.60474 -20,31.96875 c -8.69543,6.52153 -19.571245,11.56825 -30.9375,14.03125 c 0.597992,-3.35678 1.753844,-6.63949 3.5625,-9.6875 l -45.25,21.90625 l 48.6875,12.625 c -2.713355,-3.08517 -4.694737,-6.62012 -5.9375,-10.34375 c 14.24481,-2.72052 27.61888,-8.84702 38.53125,-17.03125 c 6.94036,-5.20524 12.92171,-11.32763 17.40625,-18.0625 c 24.92365,48.06612 120.33943,48.82579 147.40625,2.21875 c 31.20474,53.76932 153.5,44.56238 153.5,-27.625 c 0.0602,-3.84493 -3.86545,-7.33867 -7.3125,-7.3125 z"
     fill="url(#grad2)" />
</svg>
