<?xml version="1.0" encoding="UTF-8" standalone="no"?>
<!-- Copyright (c) 2012 Vašek Potoček -->

<svg
   xmlns="http://www.w3.org/2000/svg"
   version="1.1"
   width="512"
   height="512">
  <defs>
    <linearGradient
       x1="57.085712"
       y1="268.42856"
       x2="454.34286"
       y2="268.42856"
       id="linearGradient4454"
       gradientUnits="userSpaceOnUse"
       gradientTransform="translate(5.7142853,514.64791)" >
      <stop
         style="stop-color:#000000;stop-opacity:0"
         offset="0" />
      <stop
         style="stop-color:#000000;stop-opacity:0.19607843"
         offset="0.55753738" />
      <stop
         style="stop-color:#000000;stop-opacity:0"
         offset="1" />
    </linearGradient>
    <linearGradient
       x1="57.085712"
       y1="268.42856"
       x2="454.34286"
       y2="268.42856"
       id="linearGradient7200"
       gradientUnits="userSpaceOnUse"
       gradientTransform="translate(5.7142853,-25.71427)" >
      <stop
         style="stop-color:#000000;stop-opacity:0"
         offset="0" />
      <stop
         style="stop-color:#000000;stop-opacity:0.19607843"
         offset="0.55753738" />
      <stop
         style="stop-color:#000000;stop-opacity:0"
         offset="1" />
    </linearGradient>
  </defs>
  <path
     d="m 42.875,0 l 107,512 l 14.78125,0 l -107,-512 z"
     fill="#404040" />
  <path
     d="m 71.479826,136.37943 c 11.10829,-7.43965 23.452996,-13.01404 36.713614,-16.36182 c 0.90756,-0.22924 1.81947,-0.44806 2.73564,-0.65631 c 11.61021,-2.63775 23.85659,-3.59016 36.37787,-3.20126 c 1.70672,0.053 3.41862,0.13107 5.13477,0.23329 c 11.93373,0.71096 24.06182,2.5541 36.23603,5.05208 c 2.22392,0.45639 4.44933,0.93472 6.6753,1.43207 c 12.05264,2.69262 24.13109,5.93728 36.21243,9.30732 c 2.4287,0.67754 4.85748,1.36014 7.2861,2.04433 c 12.0891,3.40541 24.1835,6.8586 36.27012,9.9181 c 2.30701,0.58403 4.61371,1.15366 6.91999,1.7058 c 12.21383,2.92366 24.42743,5.36252 36.505,6.7487 c 1.80227,0.20687 3.60146,0.39023 5.39709,0.5482 c 12.59054,1.10726 25.01309,0.93556 36.81139,-1.11375 c 0.91743,-0.15941 1.83105,-0.33018 2.74064,-0.51258 c 13.09867,-2.62519 25.30775,-7.71954 36.01996,-15.10177 c 20.85394,67.70456 38.11613,137.68469 51.49284,209.94065 c -11.6854,6.25833 -24.4903,10.5909 -37.97925,12.96074 c -0.93655,0.16443 -1.87633,0.31942 -2.81919,0.46497 c -12.12638,1.87256 -24.74124,2.20507 -37.53997,1.40479 c -1.82502,-0.11406 -3.65376,-0.25104 -5.48533,-0.40973 c -12.2751,-1.0637 -24.67991,-3.0876 -37.108,-5.63972 c -2.34674,-0.48182 -4.69438,-0.98242 -7.04223,-1.49888 c -12.3006,-2.7061 -24.61411,-5.85066 -36.92404,-9.03922 c -2.47307,-0.64052 -4.94602,-1.28284 -7.41875,-1.92377 c -12.30006,-3.18848 -24.60291,-6.34934 -36.88086,-9.04901 c -2.26751,-0.49852 -4.5342,-0.98139 -6.79991,-1.4459 c -12.40337,-2.54328 -24.78825,-4.53039 -36.98866,-5.42528 c -1.75423,-0.12869 -3.50474,-0.23487 -5.25104,-0.31695 c -12.81402,-0.6023 -25.38976,0.1389 -37.29181,2.66295 c -0.93922,0.19906 -1.87429,0.40924 -2.805,0.63075 c -13.59915,3.23838 -26.19239,8.91655 -37.36138,16.64598 C 99.745019,277.02607 85.15851,207.02448 71.479826,136.37943 z"
     style="fill:#ffffff" />
  <path
     d="m 71.478532,136.39046 c 1.85639,9.58755 3.729496,19.16324 5.619507,28.72708 c 13.02725,1.40842 27.471351,4.60873 43.033151,10.18463 c 1.06454,0.38906 2.13069,0.78938 3.19807,1.20102 c 13.52156,5.13317 27.6879,12.04088 42.05829,20.39083 c 1.9472,1.13731 3.8927,2.29388 5.83549,3.46825 c 13.04404,7.84295 26.215,16.73768 39.37881,26.22066 c -10.04136,4.72572 -20.13493,10.02589 -30.15637,16.33113 c -1.49022,0.94352 -2.98443,1.9037 -4.48177,2.88203 c -11.07075,7.17281 -22.01734,15.73389 -32.37398,26.08152 c -0.81763,0.80987 -1.63452,1.63116 -2.45025,2.46399 c -11.92642,12.28101 -22.78852,27.01261 -32.11867,43.74828 c 2.07911,9.44696 4.17616,18.88204 6.29133,28.30523 c 11.1697,-7.73046 23.76395,-13.40935 37.36429,-16.64801 c 0.81265,-0.19341 1.62862,-0.37818 2.44777,-0.55446 c 0.10297,-0.10343 0.20602,-0.20668 0.30913,-0.30975 c 10.30122,-10.29844 21.3214,-18.83995 32.50929,-26.00502 c 1.51984,-0.97686 3.03994,-1.93194 4.55883,-2.86757 c 10.59567,-6.50776 21.28058,-11.94071 31.86535,-16.79765 c 1.93149,-0.89169 3.86127,-1.76884 5.78912,-2.63468 c 10.44999,-4.66614 20.85042,-8.85767 31.20171,-12.96537 c 0.82643,-0.32904 1.65284,-0.6576 2.47926,-0.98589 c 1.65976,1.27428 3.3209,2.54884 4.98341,3.82294 c 13.70455,10.53144 27.52759,21.05937 41.44621,31.14514 c 2.65653,1.92199 5.31664,3.83107 7.97961,5.72362 c 14.10199,10.04612 28.35861,19.5239 42.52463,27.97454 c 2.1109,1.26001 4.22131,2.4994 6.3294,3.71616 c 14.31567,8.2578 28.44838,15.29362 41.88612,20.97172 c 0.40919,-0.0595 0.81784,-0.12082 1.22594,-0.18384 c 0.94285,-0.14554 1.88263,-0.30053 2.81916,-0.46496 c 13.48372,-2.36889 26.28394,-6.69896 37.96572,-12.95329 c 0.006,-0.0149 0.0115,-0.0298 0.0172,-0.0448 c -1.81548,-9.80626 -3.70262,-19.57071 -5.66062,-29.29326 c -13.57852,-2.05406 -28.56354,-5.76044 -44.6321,-11.6861 c -1.11122,-0.41846 -2.22367,-0.84674 -3.33697,-1.28486 c -14.34967,-5.58635 -29.20296,-12.89089 -44.07088,-21.59563 c -2.10942,-1.23685 -4.21629,-2.49338 -6.31956,-3.76794 c -14.13768,-8.55587 -28.24129,-18.15074 -42.16097,-28.28839 c -0.13004,-0.0944 -0.26008,-0.18882 -0.39011,-0.28329 c 0.0985,-0.0428 0.1971,-0.0856 0.29565,-0.12851 c 10.54866,-4.55567 21.23867,-9.56624 31.92007,-15.55801 c 1.5876,-0.89619 3.17778,-1.80926 4.76956,-2.74124 c 11.23724,-6.50398 22.42611,-14.36214 32.98404,-24.12015 c 0.81854,-0.75506 1.63542,-1.52108 2.45018,-2.29829 c 11.79597,-11.29725 22.32681,-25.13267 30.95631,-41.17344 c -2.69708,-9.27213 -5.46109,-18.50237 -8.29134,-27.69079 c -10.71453,7.38572 -22.92697,12.48227 -36.02953,15.10825 c -0.9096,0.1824 -1.82323,0.35317 -2.74067,0.51258 c -0.41453,0.072 -0.82982,0.14168 -1.24587,0.20907 c -9.60926,9.20242 -20.08151,16.72423 -30.75909,22.99594 c -1.57393,0.92872 -3.15102,1.83424 -4.72976,2.7193 c -10.59846,5.92516 -21.33342,10.83075 -31.94648,15.27947 c -2.00416,0.84436 -4.00684,1.67569 -6.00765,2.49754 c -10.48325,4.28976 -20.91412,8.2369 -31.27207,12.25623 c -1.25688,0.48933 -2.5131,0.97922 -3.76862,1.47035 c -1.08295,-0.84129 -2.16561,-1.6824 -3.24801,-2.52311 c -13.56063,-10.55833 -27.12382,-21.04202 -40.68905,-31.00404 c -2.50324,-1.83583 -5.00697,-3.65863 -7.51055,-5.46468 c -13.71627,-9.91077 -27.46779,-19.1791 -41.06396,-27.29996 c -1.95063,-1.16789 -3.90085,-2.31428 -5.84881,-3.43727 c -14.32665,-8.24174 -28.38507,-15.05426 -41.69298,-20.17488 c -0.11364,-0.0437 -0.22721,-0.0873 -0.34073,-0.13077 c -0.81622,0.18775 -1.62904,0.38389 -2.43839,0.58833 c -13.261889,3.34809 -25.607688,8.92321 -36.716803,16.36393 z"
     style="fill:#808080" />
  <path
     d="m 71.479826,136.37943 c 11.10829,-7.43965 23.452996,-13.01404 36.713614,-16.36182 c 0.90756,-0.22924 1.81947,-0.44806 2.73564,-0.65631 c 11.61021,-2.63775 23.85659,-3.59016 36.37787,-3.20126 c 1.70672,0.053 3.41862,0.13107 5.13477,0.23329 c 11.93373,0.71096 24.06182,2.5541 36.23603,5.05208 c 2.22392,0.45639 4.44933,0.93472 6.6753,1.43207 c 12.05264,2.69262 24.13109,5.93728 36.21243,9.30732 c 2.4287,0.67754 4.85748,1.36014 7.2861,2.04433 c 12.0891,3.40541 24.1835,6.8586 36.27012,9.9181 c 2.30701,0.58403 4.61371,1.15366 6.91999,1.7058 c 12.21383,2.92366 24.42743,5.36252 36.505,6.7487 c 1.80227,0.20687 3.60146,0.39023 5.39709,0.5482 c 12.59054,1.10726 25.01309,0.93556 36.81139,-1.11375 c 0.91743,-0.15941 1.83105,-0.33018 2.74064,-0.51258 c 13.09867,-2.62519 25.30775,-7.71954 36.01996,-15.10177 c 20.85394,67.70456 38.11613,137.68469 51.49284,209.94065 c -11.6854,6.25833 -24.4903,10.5909 -37.97925,12.96074 c -0.93655,0.16443 -1.87633,0.31942 -2.81919,0.46497 c -12.12638,1.87256 -24.74124,2.20507 -37.53997,1.40479 c -1.82502,-0.11406 -3.65376,-0.25104 -5.48533,-0.40973 c -12.2751,-1.0637 -24.67991,-3.0876 -37.108,-5.63972 c -2.34674,-0.48182 -4.69438,-0.98242 -7.04223,-1.49888 c -12.3006,-2.7061 -24.61411,-5.85066 -36.92404,-9.03922 c -2.47307,-0.64052 -4.94602,-1.28284 -7.41875,-1.92377 c -12.30006,-3.18848 -24.60291,-6.34934 -36.88086,-9.04901 c -2.26751,-0.49852 -4.5342,-0.98139 -6.79991,-1.4459 c -12.40337,-2.54328 -24.78825,-4.53039 -36.98866,-5.42528 c -1.75423,-0.12869 -3.50474,-0.23487 -5.25104,-0.31695 c -12.81402,-0.6023 -25.38976,0.1389 -37.29181,2.66295 c -0.93922,0.19906 -1.87429,0.40924 -2.805,0.63075 c -13.59915,3.23838 -26.19239,8.91655 -37.36138,16.64598 C 99.745019,277.02607 85.15851,207.02448 71.479826,136.37943 z"
     style="fill:url(#linearGradient7200)" />
</svg>
